<svg width="300" height="400" viewBox="0 0 300 400" fill="none" xmlns="http://www.w3.org/2000/svg">
  <rect width="300" height="400" fill="#F3F4F6"/>
  <rect x="20" y="20" width="260" height="360" fill="white" stroke="#2C5AA0" stroke-width="2"/>
  <rect x="30" y="30" width="240" height="40" fill="#2C5AA0"/>
  <text x="150" y="55" text-anchor="middle" fill="white" font-family="Arial" font-size="16" font-weight="bold">PROFESSIONAL RESUME</text>
  <rect x="30" y="80" width="240" height="25" fill="#E6F0FF"/>
  <text x="40" y="98" fill="#2C5AA0" font-family="Arial" font-size="12" font-weight="bold">EXPERIENCE</text>
  <rect x="30" y="115" width="240" height="15" fill="#F9FAFB"/>
  <rect x="30" y="140" width="240" height="15" fill="#F9FAFB"/>
  <rect x="30" y="165" width="240" height="25" fill="#E6F0FF"/>
  <text x="40" y="183" fill="#2C5AA0" font-family="Arial" font-size="12" font-weight="bold">EDUCATION</text>
  <rect x="30" y="200" width="240" height="15" fill="#F9FAFB"/>
  <rect x="30" y="225" width="240" height="15" fill="#F9FAFB"/>
  <rect x="30" y="250" width="240" height="25" fill="#E6F0FF"/>
  <text x="40" y="268" fill="#2C5AA0" font-family="Arial" font-size="12" font-weight="bold">SKILLS</text>
  <rect x="30" y="285" width="240" height="15" fill="#F9FAFB"/>
  <rect x="30" y="310" width="240" height="15" fill="#F9FAFB"/>
  <rect x="30" y="335" width="240" height="15" fill="#F9FAFB"/>
</svg>